<?xml version="1.0" encoding="UTF-8" standalone="no"?>
<svg width="512" height="512" viewBox="0 0 512 512" fill="none" xmlns="http://www.w3.org/2000/svg">
  <!-- Background Circle -->
  <circle cx="256" cy="256" r="256" fill="#6a5acd"/>
  
  <!-- Flower Petals -->
  <path d="M256 100C290 160 350 160 380 130C410 100 400 40 350 30C300 20 280 60 256 100Z" fill="#ff69b4"/>
  <path d="M256 100C222 160 162 160 132 130C102 100 112 40 162 30C212 20 232 60 256 100Z" fill="#ff69b4"/>
  <path d="M256 412C290 352 350 352 380 382C410 412 400 472 350 482C300 492 280 452 256 412Z" fill="#ff69b4"/>
  <path d="M256 412C222 352 162 352 132 382C102 412 112 472 162 482C212 492 232 452 256 412Z" fill="#ff69b4"/>
  <path d="M100 256C160 290 160 350 130 380C100 410 40 400 30 350C20 300 60 280 100 256Z" fill="#ff69b4"/>
  <path d="M100 256C160 222 160 162 130 132C100 102 40 112 30 162C20 212 60 232 100 256Z" fill="#ff69b4"/>
  <path d="M412 256C352 290 352 350 382 380C412 410 472 400 482 350C492 300 452 280 412 256Z" fill="#ff69b4"/>
  <path d="M412 256C352 222 352 162 382 132C412 102 472 112 482 162C492 212 452 232 412 256Z" fill="#ff69b4"/>
  
  <!-- Center Circle -->
  <circle cx="256" cy="256" r="80" fill="#fff"/>
  <circle cx="256" cy="256" r="60" fill="#6a5acd"/>
  
  <!-- Chat Icon -->
  <path d="M226 226H286V266H256L236 286V266H226V226Z" fill="white"/>
</svg>